<svg xmlns="http://www.w3.org/2000/svg" xmlns:xlink="http://www.w3.org/1999/xlink" width="100" height="100" viewBox="0 0 100 100"><g><g transform="translate(50 50) scale(0.69 0.69) rotate(0) translate(-50 -50)" style="fill:#000000"><svg fill="#000000" xmlns="http://www.w3.org/2000/svg" xmlns:xlink="http://www.w3.org/1999/xlink" version="1.1" x="0px" y="0px" viewBox="0 0 100 100" enable-background="new 0 0 100 100" xml:space="preserve"><path d="M63.564,59.937c0-6.076-5.658-11.047-12.768-11.403V31.671c3.64,0.216,6.893,1.893,8.61,4.517  c0.453,0.694,1.386,0.888,2.076,0.434c0.693-0.453,0.888-1.383,0.434-2.076c-2.261-3.455-6.475-5.646-11.12-5.872v-7.967  c0-0.828-0.672-1.5-1.5-1.5s-1.5,0.672-1.5,1.5v8.088c-6.434,0.896-11.361,5.603-11.361,11.271c0,5.668,4.928,10.372,11.361,11.268  v16.839c-3.055-0.517-5.709-2.078-7.199-4.36c-0.454-0.693-1.383-0.888-2.076-0.436c-0.693,0.453-0.889,1.383-0.436,2.076  c2.028,3.105,5.633,5.195,9.711,5.756v8.086c0,0.828,0.672,1.5,1.5,1.5s1.5-0.672,1.5-1.5V71.34  C57.906,70.983,63.564,66.013,63.564,59.937z M39.436,40.065c0-4.046,3.59-7.433,8.361-8.248V48.31  C43.025,47.494,39.436,44.109,39.436,40.065z M50.797,68.341V51.532c5.455,0.332,9.768,3.97,9.768,8.404  S56.252,68.009,50.797,68.341z"></path></svg></g></g></svg>