<svg xmlns="http://www.w3.org/2000/svg" xmlns:xlink="http://www.w3.org/1999/xlink" width="100" height="100" viewBox="0 0 100 100"><g><g transform="translate(50 50) scale(0.69 0.69) rotate(0) translate(-50 -50)" style="fill:#000000"><svg fill="#000000" xmlns="http://www.w3.org/2000/svg" xmlns:xlink="http://www.w3.org/1999/xlink" version="1.1" x="0px" y="0px" viewBox="0 0 100 100" enable-background="new 0 0 100 100" xml:space="preserve"><path d="M95,52.915c0,2.326-0.672,3.725-2.492,3.97c-0.127,0.027-0.307,0.054-0.469,0.054h-9.832c0,0,0,22.416,0,31.229  c0,3.94-1.998,5.691-4.203,6.428c-0.365,0.11-0.703,0.221-1.039,0.276H23.502c-0.363-0.057-0.703-0.166-1.039-0.276  c-2.204-0.735-4.204-2.486-4.204-6.428c0-8.812,0-31.229,0-31.229s-8.93,0.055-10.275,0C5.804,56.858,5,55.437,5,52.916  c0-3.204,0.544-3.856,2.985-6.374c2.906-3.038,37.604-39.271,37.604-39.271s1.919-2.217,4.646-2.14  c2.751-0.078,4.618,2.14,4.618,2.14s8.177,8.783,16.921,18.062v-8.457c0,0,0.027-3.175,4.516-3.858  c0.521-0.082,1.117-0.111,1.766-0.111h1.039c0.623,0,1.221,0.029,1.736,0.111c4.521,0.654,4.545,3.858,4.545,3.858v22.712  c3.447,3.587,5.971,6.213,6.666,6.954C94.479,49.058,95,49.711,95,52.915z"></path></svg></g></g></svg>