<svg xmlns="http://www.w3.org/2000/svg" xmlns:xlink="http://www.w3.org/1999/xlink" width="100" height="100" viewBox="0 0 100 100"><g><g transform="translate(50 50) scale(0.69 0.69) rotate(0) translate(-50 -50)" style="fill:#000000"><svg fill="#000000" xmlns="http://www.w3.org/2000/svg" xmlns:xlink="http://www.w3.org/1999/xlink" version="1.1" x="0px" y="0px" viewBox="0 0 100 100" style="enable-background:new 0 0 100 100;" xml:space="preserve"><g><path d="M33.7,27.3c0,9,7.3,16.3,16.3,16.3c9,0,16.3-7.3,16.3-16.3S59,10.9,50,10.9C41,10.9,33.7,18.2,33.7,27.3z"></path><path d="M50,46.8C35,46.8,22.8,59,22.8,74v8.7c6.3,4,16.4,6.4,27.2,6.4c10.8,0,20.9-2.4,27.2-6.4V74C77.2,59,65,46.8,50,46.8z"></path></g></svg></g></g></svg>