<svg xmlns="http://www.w3.org/2000/svg" xmlns:xlink="http://www.w3.org/1999/xlink" width="100" height="100" viewBox="0 0 100 100"><g><g transform="translate(50 50) scale(0.69 0.69) rotate(0) translate(-50 -50)" style="fill:#000000"><svg fill="#000000" xmlns="http://www.w3.org/2000/svg" xmlns:xlink="http://www.w3.org/1999/xlink" version="1.1" x="0px" y="0px" viewBox="0 0 95 95" enable-background="new 0 0 95 95" xml:space="preserve"><path d="M47.5,3.666C23.291,3.666,3.666,23.291,3.666,47.5S23.291,91.334,47.5,91.334S91.334,71.709,91.334,47.5  S71.709,3.666,47.5,3.666z M59.084,38.547h-7.189v-9.064h-8.788v8.695L57.518,51.76c1.045,0.984,1.566,2.285,1.566,3.902v11.463  c0,2.641-1.193,4.08-3.558,4.34v4.648h-5.901V71.52h-3.78v4.594h-5.899v-4.615c-2.678-0.105-4.029-1.553-4.029-4.373V55.662h7.19  v9.803h8.788v-9.434L37.482,42.389c-1.045-1.004-1.566-2.285-1.566-3.842V27.854c0-2.844,1.345-4.311,4.029-4.414v-4.66h5.899v4.648  h3.78v-4.648h5.901v4.703c2.364,0.258,3.558,1.688,3.558,4.311V38.547z"></path></svg></g></g></svg>