<?xml version="1.0" standalone="no"?>
<!DOCTYPE svg PUBLIC "-//W3C//DTD SVG 20010904//EN"
 "http://www.w3.org/TR/2001/REC-SVG-20010904/DTD/svg10.dtd">
<svg version="1.0" xmlns="http://www.w3.org/2000/svg"
 width="131.000000pt" height="131.000000pt" viewBox="0 0 131.000000 131.000000"
 preserveAspectRatio="xMidYMid meet">
<metadata>
Created by potrace 1.11, written by Peter Selinger 2001-2013
</metadata>
<g transform="translate(0.000000,131.000000) scale(0.100000,-0.100000)"
fill="#000000" stroke="none">
<path d="M138 1250 c5 -13 3 -13 -10 -2 -11 9 -17 9 -20 2 -2 -6 -13 -12 -25
-13 -12 0 -21 -6 -20 -12 1 -5 -4 -9 -10 -7 -8 1 -13 -8 -13 -20 0 -19 -2 -20
-10 -8 -8 12 -10 11 -10 -7 0 -13 -4 -23 -8 -23 -5 0 -9 -20 -11 -45 -1 -28 2
-45 9 -45 6 0 9 -4 5 -9 -3 -5 6 -21 20 -35 16 -16 20 -26 12 -29 -7 -3 -2 -6
11 -6 12 -1 22 -5 22 -11 0 -5 14 -10 31 -10 36 0 59 -20 59 -50 0 -12 5 -18
10 -15 6 4 10 -5 10 -19 0 -14 5 -26 10 -26 6 0 10 -9 10 -21 0 -11 5 -17 10
-14 6 3 10 1 10 -5 0 -14 66 -80 80 -80 6 0 8 -4 5 -10 -4 -6 5 -10 19 -10 14
0 26 -3 26 -8 0 -7 29 -21 73 -36 10 -3 16 -9 13 -14 -2 -4 10 -9 27 -10 17
-2 34 -7 38 -13 4 -8 9 -8 13 -1 7 11 24 11 44 -1 6 -5 16 -6 21 -3 4 3 14 0
22 -7 8 -7 12 -11 10 -10 -2 1 -12 -9 -23 -22 -13 -17 -29 -25 -49 -25 -22 0
-28 -4 -23 -12 6 -10 5 -10 -7 -1 -8 6 -41 11 -74 11 -52 -1 -61 -3 -62 -19
-2 -17 18 -25 50 -20 4 0 7 -5 7 -11 0 -10 2 -10 9 0 4 8 12 14 16 14 4 0 12
-6 16 -14 6 -9 9 -10 9 -1 0 15 50 13 50 -2 0 -6 3 -7 8 0 4 6 18 12 31 13 25
4 59 31 52 41 -2 3 7 12 20 18 13 7 18 13 11 13 -10 0 -10 3 0 14 10 11 16 11
27 2 12 -8 13 -8 7 2 -4 6 -2 12 3 12 6 0 11 -4 11 -10 0 -5 7 -10 16 -10 8 0
21 -6 28 -12 7 -7 25 -22 39 -33 15 -11 27 -27 27 -35 0 -9 6 -22 13 -29 10
-11 9 -12 -3 -6 -12 7 -13 6 -4 -6 13 -17 16 -109 3 -109 -5 0 -9 -9 -9 -20 0
-11 -4 -20 -10 -20 -5 0 -10 -7 -10 -16 0 -8 -4 -12 -10 -9 -6 3 -10 -1 -10
-10 0 -9 -5 -13 -10 -10 -6 3 -17 -1 -26 -9 -9 -9 -20 -14 -25 -11 -5 4 -9 1
-9 -4 0 -6 -12 -11 -26 -11 -14 0 -23 4 -19 10 3 6 0 10 -7 10 -9 0 -9 3 2 10
11 7 11 10 2 10 -7 0 -11 4 -7 9 3 5 -1 16 -9 24 -8 8 -12 17 -9 21 4 3 1 6
-6 6 -7 0 -9 5 -6 10 4 6 3 10 -2 9 -22 -4 -43 2 -38 11 4 6 -30 10 -95 10
-65 0 -99 -4 -95 -10 3 -5 2 -10 -2 -10 -5 0 -9 -13 -9 -30 -1 -20 2 -27 10
-23 6 4 5 -1 -3 -10 -9 -11 -10 -17 -2 -17 6 0 11 -9 11 -20 0 -11 5 -20 11
-20 6 0 9 -6 6 -14 -3 -8 1 -16 9 -18 13 -3 13 -6 -3 -24 -32 -35 -41 -59 -32
-76 6 -11 5 -19 -1 -23 -5 -3 -10 -11 -10 -16 0 -6 5 -7 11 -3 8 5 8 1 0 -13
-6 -11 -7 -23 -4 -27 11 -11 203 -7 203 5 0 5 -5 7 -12 3 -7 -4 -8 -3 -4 4 4
7 16 12 27 12 11 0 22 7 25 15 4 8 11 12 17 8 5 -3 7 -1 3 5 -3 6 1 18 10 26
8 9 11 16 5 16 -15 0 -13 11 4 34 11 15 27 19 75 18 40 0 58 3 53 11 -4 6 -1
7 8 1 22 -13 51 -16 43 -3 -5 8 -1 8 14 0 25 -13 43 -15 23 -2 -10 6 1 9 34 9
26 0 51 6 55 12 4 6 10 11 14 11 28 -4 46 1 46 14 0 8 9 15 20 15 11 0 20 5
20 10 0 6 7 10 16 10 8 0 12 5 9 10 -3 6 3 10 15 10 12 0 18 5 15 10 -3 6 -2
10 3 10 17 0 52 41 45 53 -4 7 1 6 11 -2 9 -8 16 -10 15 -5 -3 18 1 37 8 31 7
-8 33 38 33 59 0 8 5 14 10 14 6 0 10 14 10 30 0 17 5 30 10 30 6 0 10 12 10
26 0 14 4 23 8 20 4 -2 9 4 9 15 1 12 -3 17 -9 13 -7 -5 -8 -2 -4 5 14 22 17
70 7 89 -7 13 -7 22 1 30 9 9 9 12 0 12 -7 0 -12 11 -12 24 0 13 -7 36 -14 52
-8 15 -12 32 -9 37 3 6 1 7 -5 3 -11 -6 -18 19 -13 46 0 5 -3 7 -8 5 -5 -1 -9
2 -10 6 0 10 -27 37 -36 37 -3 0 -28 21 -53 48 -26 26 -54 48 -62 50 -8 2 -16
8 -18 13 -2 5 -12 9 -23 9 -10 0 -19 7 -19 15 0 10 -10 15 -31 15 -16 0 -28 3
-25 8 2 4 -23 9 -57 10 -34 2 -65 9 -69 15 -5 8 -8 8 -8 1 0 -6 -7 -11 -15
-11 -8 0 -15 5 -15 11 0 7 -3 7 -8 1 -10 -14 -32 -17 -32 -4 0 9 -4 9 -14 0
-16 -13 -66 -11 -66 4 0 6 -3 7 -8 0 -4 -5 -14 -10 -22 -10 -8 0 -18 5 -22 10
-5 6 -8 6 -8 -1 0 -14 -30 -14 -30 0 0 6 -4 5 -9 -2 -4 -8 -12 -14 -16 -14 -4
0 -12 6 -16 14 -5 7 -9 8 -9 2 0 -14 -30 -14 -30 0 0 6 -5 4 -10 -4 -8 -12
-11 -13 -19 -1 -6 9 -11 10 -15 2 -9 -14 -66 -11 -66 4 0 6 -3 7 -8 0 -10 -14
-32 -17 -32 -4 0 8 -5 8 -15 -1 -12 -10 -15 -10 -15 1 0 12 -2 12 -9 0 -6 -8
-14 -10 -22 -5 -20 12 -40 14 -33 3 3 -5 -9 -9 -26 -9 -31 0 -60 -19 -60 -39
0 -6 -4 -11 -10 -11 -5 0 -10 -13 -10 -30 0 -25 -4 -30 -22 -30 -26 1 -61 24
-51 33 3 4 1 7 -5 7 -7 0 -12 7 -12 16 0 9 -5 12 -12 8 -9 -5 -9 -2 1 9 10 13
10 17 1 17 -9 0 -9 4 1 17 12 15 12 16 -1 8 -12 -6 -13 -5 -2 6 6 7 12 21 12
31 0 10 7 18 16 18 8 0 12 5 9 10 -3 6 1 11 9 11 24 2 30 4 43 12 6 4 14 3 18
-2 5 -10 42 -7 53 4 3 2 12 -1 20 -8 13 -9 14 -9 8 1 -4 6 -2 12 3 12 6 0 11
-6 11 -12 0 -10 3 -9 9 1 6 10 10 10 16 1 6 -9 10 -9 16 1 8 12 11 11 19 -1 6
-10 10 -11 10 -2 0 6 5 12 11 12 5 0 7 -4 4 -10 -3 -5 -2 -10 4 -10 5 0 12 6
14 13 4 9 8 8 16 -3 7 -10 11 -11 11 -2 0 6 8 12 18 12 15 0 15 -2 2 -10 -14
-10 -1 -10 45 0 6 1 12 1 15 0 19 -7 39 -7 34 1 -3 5 2 9 10 9 9 0 16 5 16 10
0 6 -4 10 -10 10 -5 0 -10 6 -10 14 0 11 -10 14 -37 12 -24 -2 -37 -7 -35 -15
1 -7 -2 -10 -8 -6 -6 3 -8 10 -5 14 7 12 -46 11 -69 -1 -12 -7 -16 -7 -12 0 3
6 -23 9 -72 8 -57 -1 -76 -5 -74 -15 1 -7 -2 -10 -8 -6 -6 3 -8 11 -5 16 4 5
-5 8 -18 7 -18 -2 -23 -7 -19 -18z m512 -369 c0 -133 -3 -192 -12 -197 -7 -5
-8 -2 -3 7 6 11 5 12 -6 2 -7 -7 -20 -13 -28 -13 -14 0 -14 1 -1 10 8 5 10 10
5 10 -6 0 -16 -5 -23 -12 -9 -9 -12 -9 -12 1 0 7 -10 12 -22 11 -59 -5 -96 1
-116 20 -12 12 -22 16 -22 9 0 -7 -8 -2 -19 9 -10 12 -26 22 -35 22 -9 0 -16
5 -16 10 0 6 -5 10 -11 10 -16 0 -70 60 -63 71 3 5 0 8 -8 7 -7 -2 -12 3 -10
11 1 7 -7 22 -19 32 -15 13 -18 19 -8 20 10 0 11 2 2 6 -7 2 -13 13 -13 24 0
10 -4 19 -8 19 -13 0 -13 69 0 85 11 12 53 14 231 15 l217 0 0 -189z m250 177
c0 -10 3 -9 9 1 6 9 11 10 15 2 4 -6 18 -11 31 -11 13 0 27 -4 30 -10 3 -5 15
-10 26 -10 10 0 19 -4 19 -10 0 -5 9 -10 21 -10 11 0 17 -4 14 -10 -3 -5 -1
-10 6 -10 15 0 81 -72 71 -79 -4 -3 -9 -19 -10 -36 -2 -16 -8 -31 -13 -33 -5
-2 -9 -12 -9 -23 0 -10 -4 -19 -8 -19 -4 0 -15 -13 -25 -29 -27 -45 -74 -92
-96 -94 -11 0 -17 -5 -15 -9 3 -5 10 -6 15 -3 5 4 9 4 9 2 0 -10 -78 -45 -86
-39 -4 4 -4 1 0 -5 7 -13 -10 -18 -43 -14 -7 2 -10 -2 -6 -8 14 -23 -27 -9
-57 19 -17 17 -41 30 -52 30 -25 0 -61 36 -45 46 6 4 6 11 -2 21 -10 12 -10
16 2 24 11 7 11 9 0 9 -11 0 -11 3 -1 15 7 9 8 15 2 15 -12 0 -11 18 2 39 6
10 5 12 -2 7 -7 -4 -12 -2 -12 3 0 6 6 11 13 11 9 0 9 2 -1 9 -8 4 -14 12 -14
16 0 4 6 12 14 16 7 5 8 9 2 9 -11 0 -12 35 -1 46 4 4 2 14 -5 21 -9 11 -9 17
3 24 11 7 11 9 0 9 -11 0 -11 3 -1 15 7 8 8 15 3 15 -5 0 -10 7 -10 15 0 8 5
15 11 15 6 0 4 5 -4 10 -10 7 19 10 93 10 79 0 107 -3 107 -12z m300 -220 c0
-19 2 -20 10 -8 7 11 10 7 10 -17 0 -17 4 -33 10 -35 17 -5 16 -248 -1 -248
-5 0 -9 -12 -9 -26 0 -14 -4 -23 -10 -19 -6 4 -10 -5 -10 -19 0 -14 -5 -26
-11 -26 -16 0 -39 -26 -39 -44 0 -9 -3 -15 -7 -15 -5 1 -21 1 -36 0 -20 -1
-26 -5 -21 -13 5 -8 0 -7 -11 2 -10 8 -20 14 -22 13 -11 -9 -123 -2 -118 7 3
6 -5 10 -19 10 -32 0 -34 5 -37 73 -1 31 -6 54 -11 51 -13 -8 -9 21 4 34 7 7
23 12 36 12 13 0 20 4 17 10 -3 6 3 10 14 10 12 0 21 4 21 10 0 5 3 9 8 9 19
-3 31 3 60 30 16 16 34 26 38 23 4 -4 4 -2 0 5 -3 6 5 23 19 37 14 14 25 30
25 36 0 5 5 10 10 10 6 0 10 6 10 14 0 8 4 16 9 18 5 2 11 14 13 28 6 47 48
71 48 28z m-731 -490 c8 -8 11 -8 8 -2 -8 14 41 16 49 2 3 -5 13 -3 22 4 12
10 16 10 19 1 3 -7 11 -13 18 -13 20 0 44 -54 33 -74 -5 -9 -13 -14 -18 -11
-5 3 -12 0 -16 -6 -4 -7 -3 -9 4 -5 6 3 13 2 16 -2 7 -12 -41 -9 -51 2 -4 5
-2 6 5 2 6 -4 12 -3 12 2 0 5 -13 9 -30 9 -27 0 -28 -2 -12 -15 11 -9 8 -9
-10 2 -15 9 -32 16 -38 16 -19 0 -40 27 -40 52 0 18 -2 20 -10 8 -5 -8 -10
-12 -10 -7 0 10 24 47 30 47 3 0 12 -6 19 -12z m432 0 c0 -9 2 -9 6 1 4 10 7
10 13 2 4 -7 35 -12 74 -13 37 -1 70 -6 73 -11 3 -6 1 -7 -5 -3 -7 4 -12 1
-12 -8 0 -9 -9 -16 -20 -16 -11 0 -20 -4 -20 -10 0 -5 -13 -10 -28 -10 -15 0
-32 -4 -37 -9 -6 -6 -38 -11 -72 -12 -34 -1 -60 -5 -58 -9 3 -4 16 -6 31 -4
14 1 23 0 20 -4 -4 -3 -19 -6 -35 -7 -22 -1 -28 3 -27 19 1 12 9 27 19 34 9 7
17 20 17 28 0 8 5 12 10 9 6 -3 10 3 10 14 0 23 39 31 41 9z m-277 -167 c9
-13 -17 -60 -36 -67 -10 -3 -18 -10 -18 -15 0 -11 -130 -12 -131 -1 0 4 -2 16
-4 28 -3 11 3 30 13 42 15 19 27 22 94 22 42 0 79 -4 82 -9z"/>
<path d="M373 975 c-23 -26 -15 -45 17 -45 25 0 30 4 30 25 0 19 -4 23 -17 18
-11 -4 -14 -3 -9 5 10 17 -6 14 -21 -3z"/>
</g>
</svg>
